<svg width="179" height="108" viewBox="0 0 179 108" fill="none" xmlns="http://www.w3.org/2000/svg">
<path d="M124.299 85.8583C121.652 86.8318 114.171 88.8829 104.502 85.4963C101.989 84.6029 99.5729 83.4571 97.2916 82.0765C97.0291 80.8533 96.7248 79.497 96.3872 78.0076C96.7582 78.1158 97.2916 78.2905 97.9251 78.5027C98.2335 78.6025 98.5586 78.7149 98.9087 78.8355C98.9629 78.9104 99.1046 79.1059 99.3255 79.3764C99.5964 79.7092 99.9756 80.146 100.372 80.5621C100.567 80.7743 100.788 80.9781 100.968 81.157C101.147 81.3359 101.359 81.5148 101.522 81.6604C101.855 81.9433 102.097 82.1098 102.097 82.1098C102.097 82.1098 101.98 81.8435 101.768 81.4566C101.651 81.2735 101.534 81.0405 101.384 80.8242C101.234 80.6079 101.084 80.3499 100.918 80.1169C100.751 79.8839 100.501 79.5636 100.317 79.3223L101.63 79.7966L102.593 80.146C104.285 80.7743 105.952 81.4483 107.236 81.8726C108.432 82.2887 109.278 82.5383 109.378 82.5632C109.291 82.505 108.545 82.039 107.411 81.4649C106.848 81.1653 106.161 80.8533 105.465 80.5413L105.735 80.429C106.027 80.2917 106.323 80.1627 106.569 80.0462C106.815 79.9297 106.948 79.8423 106.948 79.8423C106.812 79.8042 106.672 79.7791 106.531 79.7674C106.386 79.7588 106.24 79.7588 106.094 79.7674C105.936 79.7674 105.76 79.7883 105.594 79.8007L105.106 79.8964C104.944 79.9339 104.806 79.9838 104.689 80.0212C104.616 80.0452 104.545 80.0744 104.477 80.1086C103.96 79.8881 103.435 79.6718 102.901 79.4513C102.368 79.2308 101.78 79.0019 101.234 78.7898C100.134 78.3737 99.0921 78.0201 98.2252 77.7413C97.2916 77.4543 96.5581 77.2712 96.2414 77.1838C96.2038 77.059 96.1747 76.9342 96.1455 76.8136L96.3956 76.7096C96.679 76.6014 97.0791 76.4932 97.4958 76.3809C97.9126 76.2685 98.3294 76.2145 98.667 76.1146C98.8528 76.0689 99.0352 76.0106 99.2129 75.9399C99.0377 75.8605 98.8527 75.8045 98.6628 75.7735C98.2444 75.6906 97.8156 75.6724 97.3916 75.7194C96.9648 75.7493 96.5442 75.8375 96.1413 75.9815L95.9579 76.0605C95.6264 74.8812 95.1999 73.7306 94.6826 72.6199C96.2209 73.0032 97.7228 73.5197 99.1713 74.1634C101.393 75.1287 103.542 76.2521 105.602 77.525C107.011 78.3779 108.453 79.1892 109.887 79.9422C115.484 82.8961 121.127 85.0512 124.299 85.8583Z" fill="#9DCE4E"/>
<path d="M98.5169 92.9143C96.3788 92.7853 85.8761 91.7161 81.0791 83.5659C76.3487 75.5321 75.4985 71.197 75.3943 70.5937L75.9653 68.8921L77.1031 69.4787L77.5823 69.72V68.2306L79.0411 68.9587V67.5026L79.9538 67.9519C80.0091 68.0019 80.0691 68.0465 80.133 68.085C80.258 68.1724 80.4414 68.318 80.6665 68.501C81.2998 69.0219 81.9037 69.5775 82.4753 70.1652C82.817 70.5438 83.2046 70.9432 83.5756 71.4133C83.9465 71.8835 84.3466 72.3411 84.7258 72.857C85.1051 73.3729 85.4719 73.9262 85.8511 74.4796C86.2304 75.0329 86.5471 75.6361 86.8972 76.2228C87.2473 76.8094 87.5557 77.4251 87.8516 78.0284C88.1476 78.6316 88.4143 79.2432 88.6852 79.834L89.3479 81.5564C89.5521 82.1097 89.698 82.6506 89.8605 83.1374C90.023 83.6241 90.1647 84.0818 90.2773 84.477C90.3898 84.8723 90.5315 85.2259 90.6565 85.5088C90.7742 85.8123 90.9135 86.1071 91.0733 86.3908C91.0897 86.0647 91.0814 85.7379 91.0483 85.4131C91.0275 85.1094 90.9858 84.7391 90.9191 84.3148C90.842 83.8433 90.7277 83.3787 90.5773 82.9252C90.4231 82.4218 90.2856 81.8726 90.0897 81.3026C89.8938 80.7326 89.6729 80.1377 89.4479 79.522C89.2228 78.9062 88.9144 78.2738 88.6435 77.6581C88.3726 77.0424 88.0267 76.41 87.7099 75.7818C87.3932 75.1535 86.9973 74.5669 86.6263 73.9845C86.2554 73.402 85.8678 72.832 85.451 72.3203C85.0343 71.8086 84.6592 71.2968 84.2591 70.8392C83.859 70.3816 83.4464 69.978 83.0838 69.5911C82.4719 68.9995 81.8262 68.4439 81.1499 67.9269C80.8957 67.748 80.6998 67.6024 80.5539 67.5109L80.5039 67.4817V66.5665H82.171L81.7126 65.6553L81.4417 65.1103H82.9004L82.171 63.6542H83.7214C84.3132 63.7956 92.8904 66.0298 95.5328 77.5583C95.9496 79.4096 96.3163 81.0322 96.6331 82.48L96.6039 82.5216C96.6039 82.5216 96.6331 82.5216 96.6456 82.5216C98.1501 89.4945 98.4585 92.0781 98.5169 92.9143Z" fill="#FFEFBD"/>
<path d="M66.392 62.6641L65.796 63.2382C64.347 63.9255 62.9739 64.7622 61.6991 65.7345V65.6305C61.5199 65.6305 43.4653 67.2197 29.4825 63.3672C22.5099 61.4492 17.8379 57.4594 16.9793 52.6958C16.669 51.0625 16.9047 49.3727 17.6503 47.8863C18.1173 46.9575 18.8057 46.1575 19.655 45.5565C21.1971 44.4581 22.6183 44.0796 23.8728 44.4457C25.2231 44.8284 26.1025 45.985 26.5359 46.7048C25.5732 46.6174 23.8436 46.634 22.4724 47.5743C21.9589 47.9458 21.5298 48.4213 21.213 48.9698C20.8963 49.5182 20.6991 50.1272 20.6344 50.757C20.401 52.2839 21.0845 53.9356 22.5641 55.4042C25.8983 58.7325 33.9003 61.6448 46.3202 59.8933L46.8203 59.8225C50.5713 61.8237 55.0516 63.388 59.9195 63.388C62.0136 63.3836 64.0969 63.0867 66.1086 62.506L66.392 62.6641Z" fill="#865F48"/>
<path d="M73.1854 70.5772C68.7343 91.0256 51.6049 92.852 48.8042 93.0101C49.9378 73.9637 61.6908 66.2545 65.1709 64.3782H67.0589L65.6002 66.5665H68.6009L67.7424 68.2765L68.6009 67.9936L68.4509 68.1392C68.1592 68.4304 67.8091 68.7341 67.4673 69.1044C67.1256 69.4747 66.7296 69.8616 66.3587 70.2984C65.9878 70.7353 65.5793 71.1929 65.1917 71.688C64.3957 72.6615 63.558 73.71 62.7953 74.8042C61.2324 76.9842 59.7528 79.2059 58.7192 80.9199C58.3077 81.6174 57.9349 82.3368 57.6023 83.075C57.3981 83.5493 57.2814 83.853 57.2605 83.9071C58.0044 83.0812 58.6909 82.2055 59.3152 81.2861C59.8779 80.454 60.5322 79.5137 61.2324 78.4778C61.9326 77.4419 62.7119 76.3768 63.5163 75.32C64.3207 74.2633 65.1042 73.2024 65.8919 72.2455C66.6796 71.2886 67.4298 70.4108 68.0925 69.6827C68.4134 69.3041 68.7426 69.0004 69.0177 68.7092C69.2928 68.4179 69.5512 68.1849 69.7596 67.9852C69.968 67.7855 70.1763 67.6108 70.2847 67.5068V69.9822L71.7434 68.5261V71.3718L72.7728 69.3207L73.1854 70.5772Z" fill="#FFEFBD"/>
<path d="M155.348 76.5515C154.902 77.134 152.197 77.4044 149.888 77.5791C144.887 77.9411 130.15 78.7565 123.027 79.0269C116.563 79.2724 111.016 79.2225 110.011 79.2142C109.117 78.7454 108.222 78.2517 107.327 77.733C106.857 77.4626 106.39 77.188 105.923 76.901C104.673 76.1396 103.501 75.4906 102.439 74.9373C105.877 74.9373 114.442 75.0329 121.002 75.6653C129.537 76.4974 141.374 77.1215 146.483 76.6638L148.721 76.46C148.984 76.435 149.247 76.4059 149.509 76.3851C152.264 76.123 155.094 75.89 155.39 76.2852C155.404 76.3298 155.408 76.3771 155.401 76.4233C155.393 76.4695 155.375 76.5134 155.348 76.5515Z" fill="#865F48"/>
<path d="M68.8301 52.9911V54.1934H65.3959L66.8546 55.6496H64.8708L66.2545 57.7298H66.1628C65.8835 57.7006 65.5418 57.659 65.1542 57.5841C64.7666 57.5093 64.3206 57.4552 63.858 57.347C61.9617 56.9684 59.4402 56.3402 56.9562 55.5996C54.4723 54.8591 51.955 54.0936 50.1337 53.4653C49.3882 53.2069 48.6284 52.9916 47.8581 52.8205C47.2954 52.704 46.962 52.6582 46.962 52.6582C47.2123 52.8313 47.4726 52.9897 47.7414 53.1325C48.4393 53.5077 49.1636 53.8317 49.9086 54.1019C51.7424 54.7759 54.2139 55.6371 56.7145 56.4067C57.9648 56.7937 59.2152 57.1265 60.4155 57.4344C61.0156 57.5925 61.5991 57.7173 62.1451 57.8504C62.691 57.9835 63.2245 58.0626 63.7038 58.1583C64.1831 58.254 64.6374 58.3039 65.0375 58.3663L65.2792 58.4037L64.1414 58.7823L65.7877 60.4215L66.392 61.0248L64.7249 61.8569L65.1417 62.0524C50.9005 65.5888 38.6766 53.3156 36.7594 51.2645C52.1717 39.5238 67.3839 51.7762 68.8301 52.9911Z" fill="#FFEFBD"/>
<path d="M77.5199 78.4569C73.8731 78.3696 72.131 78.3945 71.2683 78.4944C71.9054 77.178 72.4486 75.8183 72.8937 74.4255C73.0549 73.9401 73.2091 73.4409 73.3563 72.9277H75.2485C75.3944 73.3812 75.5694 73.9054 75.7986 74.4921C76.2029 75.5862 76.7572 76.9009 77.5199 78.4569Z" fill="#865F48"/>
<path d="M77.2197 62.1689C76.5321 63.4919 75.5276 64.3781 75.0233 64.3781C74.369 64.3781 73.0395 63.5918 72.0643 62.5392C71.896 62.3599 71.7401 62.1695 71.5975 61.9692C71.1807 61.3868 70.7389 60.538 70.9932 59.7642C71.2932 58.8863 72.0351 58.4412 73.2229 58.4412C73.5535 58.4418 73.8831 58.4766 74.2065 58.5452L74.4107 58.5951L74.5566 58.4412C74.9168 58.0894 75.3688 57.8458 75.8611 57.7381C75.9346 57.734 76.0084 57.734 76.082 57.7381C76.365 57.7577 76.6387 57.847 76.8787 57.998C77.1187 58.149 77.3175 58.357 77.4573 58.6034C78.0408 59.4106 77.9366 60.7419 77.2197 62.1689Z" fill="#FFD366"/>
<path d="M117.359 11.1998C114.938 14.9234 109.653 23.1319 106.782 28.1826C102.851 35.0847 96.6122 43.78 92.978 46.3802L93.0197 46.4426C89.5808 47.385 86.3002 48.8289 83.2838 50.7279C83.8298 49.7751 84.7384 48.2108 85.9512 46.2929C86.2346 45.8394 86.5347 45.3651 86.8556 44.8783C87.0515 44.558 87.2723 44.2376 87.4807 43.9048C87.9835 43.9721 88.492 43.986 88.9978 43.9464C90.3005 43.8523 91.5654 43.467 92.6987 42.8189L90.2439 43.2682L87.5599 43.7675C88.1642 42.8356 88.8102 41.862 89.4937 40.8552C90.1773 39.8484 90.8691 38.8749 91.5776 37.8556C91.9319 37.3771 92.282 36.8903 92.6404 36.4036C94.7243 36.9403 97.1582 35.2678 97.1582 35.2678L92.8363 36.1539C93.1655 35.7129 93.4864 35.2595 93.8282 34.8226C94.6076 33.8283 95.3536 32.809 96.1455 31.8479C96.9373 30.8869 97.6833 29.9217 98.471 29.023C98.6919 28.7609 98.8878 28.5154 99.1296 28.2617L103.239 27.0967C101.891 27.346 100.562 27.6837 99.2587 28.1077C99.7547 27.5336 100.238 26.9719 100.726 26.4436C101.468 25.6489 102.139 24.8709 102.81 24.2094C103.481 23.5479 104.093 22.9197 104.635 22.3747C105.177 21.8297 105.681 21.3845 106.06 20.9768C106.469 20.555 106.84 20.0984 107.169 19.6122C106.652 19.8921 106.16 20.215 105.698 20.5774C105.252 20.9185 104.727 21.3512 104.16 21.8796L102.314 23.7143C101.897 24.1304 101.48 24.5464 101.03 25.0249L101.864 21.8838C101.709 22.3913 101.28 23.9099 101.03 25.0623C100.759 25.3535 100.484 25.6448 100.196 25.9401C99.438 26.7265 98.6794 27.6043 97.8917 28.4946C97.104 29.385 96.2746 30.371 95.4911 31.3237C95.2952 31.5567 95.0993 31.8105 94.8993 32.0518L95.8829 25.7196C95.8829 25.7196 93.6531 30.5083 94.6076 32.4221C94.1116 33.042 93.6281 33.6702 93.1405 34.2984C92.3611 35.3052 91.6235 36.3536 90.8816 37.3563C90.1397 38.359 89.4521 39.3866 88.7977 40.3768C88.7352 40.4766 88.6685 40.5723 88.6019 40.668L89.4979 35.6381C89.4979 35.6381 87.9975 39.1744 88.3184 41.0965C87.7141 42.0035 87.139 42.8855 86.5972 43.73C86.1221 44.4706 85.6803 45.1904 85.2718 45.8602C83.288 49.1219 82.1002 51.3852 82.1002 51.3852L82.2336 51.4518C81.8168 51.7472 81.5334 51.9593 81.4208 52.0467L80.6707 52.3005C82.7191 48.311 83.8994 43.9342 84.134 39.4573L84.2216 39.4948C85.0397 37.5083 86.04 35.6017 87.2098 33.7992C90.0287 29.348 93.568 25.3947 97.6833 22.1001C102.985 17.8398 106.548 16.2256 109.611 15.0108C109.974 14.8735 110.332 14.7362 110.683 14.5947C112.971 13.7294 115.029 12.9222 117.359 11.1998Z" fill="#9DCE4E"/>
<path d="M55.2184 72.2288C54.6224 73.0318 54.0306 73.893 53.4721 74.8291C52.9136 75.7652 52.2843 76.8802 51.7341 78.0201C51.4174 77.991 43.8654 77.3004 40.5313 78.6858C37.9306 79.7675 37.9514 82.3719 38.1515 83.6991C37.4263 83.2331 36.3802 82.3095 36.4844 80.8658C36.6469 78.6983 40.0145 77.7455 40.0478 77.7372L41.5565 77.3212L40.0186 77.0299C39.1335 76.9256 38.2405 76.9033 37.3513 76.9634C32.5313 77.1423 27.7074 76.7372 22.9851 75.7568C16.7335 74.5087 16.1125 70.8143 16.1417 69.2749V69.2208C16.2 67.0699 17.4837 65.0604 18.9632 64.8358C19.3548 64.7457 19.7608 64.738 20.1555 64.8132C20.5501 64.8884 20.9248 65.0449 21.2555 65.2726C21.711 65.6407 22.0486 66.1339 22.2266 66.6913C21.5296 66.6074 20.8267 66.7903 20.2594 67.203C19.8426 67.5151 18.9007 68.4512 19.6759 70.1653C20.9804 73.0775 30.5995 74.9164 38.735 73.8306C45.6992 72.907 53.2303 72.3911 55.2184 72.2288Z" fill="#865F48"/>
<path d="M165.609 71.8586C165.58 71.9168 165.217 72.4619 162.275 72.0209C157.911 71.3718 125.14 70.5647 116.938 70.5647C107.653 70.5647 96.383 70.2735 93.0321 69.7909C92.1969 68.5512 91.2099 67.4205 90.0939 66.4251C94.5324 68.0022 99.203 68.8303 103.914 68.8756C106.331 68.8822 108.74 68.6212 111.099 68.0976C111.912 67.9145 112.733 67.7107 113.567 67.4777C115.905 66.8536 118.326 66.059 120.702 65.1936C121.952 65.1936 134.718 65.0189 146.45 68.185C149.663 69.0682 152.925 69.7628 156.219 70.2652C159.207 70.727 161.437 70.8767 162.967 70.9807C164.1 71.0598 165.163 71.1305 165.338 71.2845C165.551 71.4966 165.667 71.7421 165.609 71.8586Z" fill="#865F48"/>
<path d="M82.4295 59.7517L83.8215 58.3538L81.6335 57.6258L82.8838 56.3776H80.9041L82.3586 54.1976H80.2748L80.8708 52.9952L79.2037 53.5486L78.5535 52.263L77.0031 53.819L76.3154 51.0814L75.0193 53.0285L74.3399 52.0051H74.2941V51.9427L73.6773 51.019L73.0354 52.9453L71.0141 51.589V53.6692L69.5595 52.9412V54.9173H67.1589L68.6176 56.3693H66.2253L67.5757 58.3871L65.4918 59.0778L67.6132 61.2037L66.3629 61.8278L67.6132 62.456L66.4296 63.6542H68.4134L66.9547 65.8384H69.7846L69.1844 67.0283L71.0141 66.4167V68.2306L72.4728 66.7787V68.2972L72.8895 67.4402L73.6189 69.6202L74.2816 68.2972L74.9442 69.6202L75.5277 67.8687L76.8322 68.5219V67.0657L78.2909 67.7896V66.3377L79.7496 67.0657V65.8176H81L80.2706 64.3615H81.7251L81 62.9053H82.8921L81.7418 61.7571L83.784 60.4049L82.4295 59.7517ZM77.8658 62.5018C77.2198 63.7499 76.0529 65.1062 75.0234 65.1062C73.9231 65.1062 72.0518 63.8581 71.0099 62.3936C70.2639 61.366 70.0221 60.3758 70.3097 59.5354C70.6932 58.3622 71.7309 57.7131 73.2271 57.7131C73.5499 57.7163 73.8718 57.7455 74.1899 57.8005C74.709 57.32 75.3794 57.0346 76.0862 56.9934C76.4873 57.0091 76.8782 57.1247 77.2232 57.3296C77.5682 57.5345 77.8564 57.8222 78.0617 58.1666C78.8077 59.2275 78.741 60.8085 77.8658 62.5018Z" fill="#FFE28F"/>
<path d="M79.7121 52.5709H79.7621L79.5787 52.6374L78.816 51.0939L78.7702 51.0066L77.4073 52.367L76.6363 49.2842L75.04 51.6764C75.04 51.1314 75.1026 49.8999 75.1484 48.2565C75.1692 47.1374 75.1984 45.8269 75.2193 44.429C75.2401 43.0311 75.2734 41.5167 75.2734 40.0356C75.2734 37.0442 75.3359 34.0529 75.2443 31.8146C75.1984 30.683 75.1609 29.7344 75.1026 29.0979C75.0442 28.4613 75.0234 28.0661 75.0234 28.0661C75.0234 28.0661 74.9734 28.4447 74.9067 29.0895C74.84 29.7344 74.7775 30.6788 74.69 31.798C74.5274 34.0404 74.4857 37.0276 74.4107 40.0189C74.369 41.5208 74.3399 43.0103 74.3232 44.4165C74.3065 45.8227 74.294 47.1207 74.2898 48.2399C74.2898 49.1801 74.2898 49.9748 74.2898 50.5905L73.4563 49.3424L72.6228 51.7804L71.8142 51.2437L70.268 50.2078V51.8719C68.7259 48.3855 62.6327 32.1682 76.1028 18.5179C77.9366 20.6356 89.0978 34.5771 79.7121 52.5709Z" fill="#FFEFBD"/>
<path d="M112.662 47.1582C111.445 49.7335 103.464 64.661 83.113 62.1356L82.888 61.911L84.6384 60.746L85.2219 60.355L83.6548 59.5686L85.176 58.0543L83.7715 57.5675C84.3092 57.4676 84.9885 57.3345 85.7595 57.1515C86.268 57.0474 86.8098 56.9102 87.3849 56.7354C87.9601 56.5607 88.5644 56.4317 89.1854 56.2445C90.4357 55.8867 91.7361 55.4415 93.0322 54.9672C94.3284 54.493 95.6204 54.002 96.7832 53.4861C97.946 52.9702 99.0629 52.4585 99.9757 51.9717C100.999 51.4594 101.994 50.8913 102.956 50.2701C102.81 50.3326 101.584 50.8651 99.8006 51.6015C98.8462 51.9801 97.7418 52.4336 96.5415 52.887C95.3411 53.3405 94.0408 53.8356 92.7655 54.2558C91.4902 54.676 90.1648 55.0879 88.9312 55.4582C88.3185 55.6454 87.7225 55.7993 87.1515 55.9449C86.5806 56.0906 86.0513 56.2362 85.5511 56.361C84.6968 56.5773 83.9674 56.7396 83.4048 56.8561L84.6217 55.6412H82.2336L83.3547 53.9521L83.6923 53.457H81.4167L81.8335 52.6C82.7796 51.8802 94.9952 42.4361 112.662 47.1582Z" fill="#FFEFBD"/>
<path d="M136.702 57.5176C132.234 59.7143 120.447 65.2435 110.928 67.3902C106.301 68.3657 101.524 68.3983 96.8831 67.4859C93.8046 66.9412 90.802 66.0319 87.9392 64.7775C86.7169 63.9682 85.3753 63.3547 83.9631 62.9594C85.1955 63.0864 86.4335 63.1517 87.6724 63.155C89.4299 63.1581 91.1847 63.019 92.9196 62.7389C92.9571 62.7972 93.0155 62.8845 93.0863 62.9761C93.2819 63.2278 93.4995 63.4617 93.7365 63.675C93.9865 63.9163 94.2533 64.1493 94.4575 64.3157C94.6617 64.4821 94.8076 64.5861 94.8076 64.5861C94.8076 64.5861 94.7492 64.4197 94.6492 64.1701C94.5492 63.9205 94.3866 63.6126 94.2324 63.313C94.1228 63.1011 93.9988 62.8967 93.8615 62.7015C94.5533 62.7888 95.9995 62.9553 97.8917 63.0717C99.0295 63.1674 100.342 63.209 101.743 63.2382C101.809 63.2922 101.88 63.3505 101.968 63.4087C102.382 63.6918 102.822 63.9369 103.281 64.141C103.456 64.2283 103.639 64.3115 103.814 64.3906C104.118 64.5196 104.418 64.6361 104.648 64.7317C104.985 64.8566 105.231 64.9273 105.285 64.9439C105.231 64.8898 105.035 64.7401 104.764 64.5279L104.247 64.1118C104.035 63.9579 103.831 63.7832 103.585 63.6168L103.089 63.2548C103.922 63.2548 104.756 63.2548 105.619 63.2548C106.319 63.2548 107.032 63.2257 107.748 63.1882C108.382 63.1591 108.999 63.1175 109.636 63.0801C109.771 63.1682 109.91 63.2487 110.053 63.3214C111.027 63.8579 112.101 64.1892 113.208 64.2949C113.462 64.3277 113.719 64.336 113.975 64.3199C113.975 64.3199 113.712 64.1493 113.312 63.9454C112.912 63.7416 112.391 63.4753 111.866 63.2257L111.27 62.9511C111.866 62.9012 112.45 62.8429 113.025 62.7764C113.858 62.689 114.692 62.5933 115.43 62.4768C116.167 62.3603 116.917 62.2605 117.58 62.1149C118.243 61.9692 118.83 61.8361 119.376 61.6988C119.922 61.5615 120.36 61.3993 120.731 61.2828C121.481 61.0373 121.898 60.8667 121.898 60.8667C121.898 60.8667 121.444 60.8959 120.648 60.9832C120.256 61.0207 119.789 61.0914 119.247 61.1663C118.705 61.2412 118.105 61.3036 117.443 61.3826C116.78 61.4617 116.063 61.5574 115.304 61.6655C114.834 61.7321 114.338 61.7903 113.833 61.8403C113.987 61.6572 114.146 61.4533 114.3 61.2536C114.854 60.5464 115.35 59.7892 115.409 59.6935C114.88 60.0523 114.371 60.4384 113.883 60.8501C113.541 61.1212 113.212 61.4101 112.9 61.7154C112.812 61.8028 112.741 61.886 112.683 61.9484C111.091 62.1024 109.403 62.1981 107.711 62.2563L107.011 62.2854C106.356 62.2854 105.698 62.2854 105.056 62.327H102.485L100.909 62.2979L100.947 62.2688C101.151 62.1148 101.363 61.9609 101.58 61.782C101.997 61.4367 102.414 61.0747 102.718 60.8002C103.022 60.5256 103.135 60.355 103.193 60.3092C103.139 60.3092 102.901 60.4132 102.555 60.5672C102.209 60.7211 101.689 60.9832 101.209 61.2287C100.967 61.3452 100.734 61.4908 100.517 61.6198C100.314 61.733 100.116 61.8565 99.9256 61.99C99.7713 62.094 99.6505 62.1897 99.563 62.2605C98.992 62.2605 98.4377 62.2189 97.9292 62.1939C97.1415 62.1648 96.4497 62.1315 95.8453 62.0857C99.5508 61.0654 102.995 59.2668 105.948 56.8103L105.998 56.906C106.027 56.906 108.032 56.0323 113.396 56.2528C115.668 56.3544 117.933 56.5822 120.181 56.9351C125.646 57.7742 131.191 57.9697 136.702 57.5176Z" fill="#9DCE4E"/>
<path d="M101.901 21.7214C101.901 21.7214 101.33 23.6685 101.001 25.0747L101.034 25.0373L101.901 21.7214Z" fill="#232323"/>
<path d="M101.884 21.8047C101.568 22.9239 101.447 24.0222 101.18 25.1331L100.859 24.9625C100.947 24.2552 101.551 22.8407 101.88 21.8214L101.884 21.8047ZM101.968 21.4761C101.792 22.7118 101.536 23.9348 101.201 25.1372C101.201 25.1372 100.634 25.703 100.605 25.728C100.993 24.301 101.605 22.8781 101.968 21.4761Z" fill="#232323"/>
<path d="M103.268 27.0884C101.911 27.34 100.572 27.6791 99.2587 28.1035L99.1295 28.2575L103.268 27.0884Z" fill="#232323"/>
<path d="M103.289 27.0842C102.101 27.3755 100.213 27.9871 99.4088 28.2325L99.2838 28.3906L99.0754 28.0619C100.48 27.6043 101.834 27.4337 103.289 27.0842ZM103.368 27.0842C101.777 27.6934 100.153 28.2142 98.5044 28.6444C98.6419 28.5029 99.0254 28.0744 99.1504 27.9413C100.522 27.5173 101.932 27.2275 103.36 27.0759L103.368 27.0842Z" fill="#232323"/>
<path d="M68.951 53.0992L68.8302 52.9952V54.1934H65.396L66.8547 55.6454H64.8666L66.2587 57.7256L67.0339 57.8254L66.9797 58.5535L66.0711 58.4703C65.8461 58.4703 65.571 58.4245 65.2793 58.3788L64.1456 58.7574L66.392 60.9998L64.7249 61.8319L65.1417 62.0316C65.4876 61.9484 65.8336 61.861 66.1795 61.757L66.392 62.4518C66.3003 62.4809 66.2128 62.4976 66.1253 62.5225L66.4004 62.6598L65.796 63.2381H65.8502L66.1253 63.9121C66.1253 63.9121 65.7419 64.0785 65.1542 64.3947H67.038L65.5793 66.5789H68.5884L67.7299 68.293L68.5884 68.006C68.8177 67.7855 69.0385 67.5899 69.2303 67.436L69.9513 66.841L70.4347 67.3985C70.4347 67.3985 70.3847 67.4485 70.2972 67.5234V69.9946L71.7559 68.5385V71.3842L72.7812 69.3373L73.1979 70.5854L73.223 70.4939L73.9356 70.6478V70.6977L74.3191 69.9281L74.6983 70.6811C74.6999 70.6589 74.6999 70.6367 74.6983 70.6145L75.4235 70.5272C75.4235 70.5272 75.4235 70.5563 75.4235 70.6021L75.9903 68.9004L77.5991 69.7034V68.2306L79.0578 68.9545V67.5026L79.9663 67.956L80.3623 67.3403L80.529 67.4485V66.5665H82.1961L81.4667 65.1103H82.9213L82.1961 63.6542H83.7506H83.7173L83.8632 62.9469L82.9254 62.8429L83.0171 62.119H83.138L82.9046 61.8902L85.2469 60.33L83.6798 59.5479L85.1969 58.0335L83.7715 57.5717L83.3089 57.6549L82.3711 57.8254L82.2461 57.1057L83.163 56.9143L83.4297 56.8602L84.6467 55.6454H82.2628L83.7173 53.4653H81.4417L81.8585 52.6041L81.8043 52.6499L81.3334 52.0966L81.3875 52.0508L80.6374 52.3004C80.5373 52.5001 80.4498 52.7165 80.3414 52.9037L79.7455 52.5958L79.5662 52.6541L78.7535 51.0315L77.3907 52.3878L76.6197 49.3049L75.0192 51.6972C75.0192 51.901 75.0192 52.0134 75.0192 52.0134H74.3357L75.0192 53.0368L76.3237 51.0856L77.0114 53.819L78.566 52.2671L79.2078 53.5527L80.8749 53.0035L80.2789 54.2017H82.3628L80.9083 56.3818H82.8963L81.6459 57.6299L83.834 58.358L82.4336 59.7517L83.784 60.4257L81.7501 61.7778L82.9004 62.9261H81.0041L81.7335 64.3822H80.2748L81.0041 65.8384H79.7538V67.0865L78.2951 66.3584V67.8104L76.8364 67.0865V68.5385L75.5319 67.8895L74.9484 69.6368L74.2857 68.3138L73.6272 69.6368L72.8979 67.4526L72.4811 68.3138V66.7745L71.0224 68.2306V66.4208L69.1844 67.0283L69.7804 65.8342H66.9589L68.4176 63.65H66.4295L67.6215 62.4601L66.3712 61.8319L67.6215 61.2037L65.496 59.0819L67.5798 58.3871L66.2337 56.3735H68.6176L67.1589 54.9173H69.5595V52.9619L71.0141 53.69V51.6098L73.0312 52.9536L73.6772 51.0232L74.2941 51.9468C74.2941 51.7845 74.2941 51.3144 74.2941 50.6238L73.4605 49.3757L72.6478 51.8137L70.2889 50.2452V51.9093C70.4764 52.3254 70.6014 52.575 70.6139 52.5958L69.968 52.937C69.968 52.937 69.8263 52.6541 69.6304 52.2089L68.8343 51.7929V52.0674C69.2053 52.3628 69.422 52.55 69.4387 52.5667L68.951 53.0992Z" fill="#232323"/>
<path d="M73.2229 57.7132C71.7309 57.7132 70.6973 58.358 70.3055 59.5354C70.0221 60.3675 70.2638 61.366 71.0057 62.3936C72.0476 63.8373 73.9231 65.1062 75.0234 65.1062C76.0487 65.1062 77.2156 63.7541 77.8658 62.5018C78.741 60.8085 78.8119 59.2317 78.0533 58.1666C77.8493 57.8221 77.5619 57.5341 77.2175 57.3291C76.8731 57.1241 76.4827 57.0087 76.082 56.9934C75.374 57.0347 74.7023 57.32 74.1815 57.8005C73.8652 57.7432 73.5444 57.714 73.2229 57.7132ZM74.4107 58.5993L74.5566 58.4454C74.9656 58.0348 75.5048 57.7789 76.082 57.7215C76.3656 57.7411 76.6399 57.8304 76.8805 57.9814C77.1212 58.1323 77.3208 58.3403 77.4615 58.5868C78.045 59.4189 77.9533 60.7461 77.2198 62.1648C76.5321 63.4878 75.5319 64.3781 75.0234 64.3781C74.2607 64.3781 72.5603 63.3047 71.5975 61.9693C71.1807 61.391 70.739 60.5381 70.9974 59.7642C71.2891 58.8864 72.0393 58.4412 73.2229 58.4412C73.5535 58.4414 73.8832 58.4763 74.2065 58.5452L74.4107 58.5993Z" fill="#232323"/>
<path d="M93.0196 46.4426C89.5808 47.3849 86.3001 48.8289 83.2838 50.7278C82.9212 51.3644 82.7253 51.7263 82.7253 51.7263L82.2085 51.4476C81.7918 51.7471 81.5125 51.9593 81.4042 52.0508L82.3044 51.7513L81.8876 52.5834C82.7962 51.8553 95.0035 42.4029 112.675 47.1332C111.458 49.7168 103.481 64.6402 83.1296 62.1107L83.9632 62.9428C85.1956 63.0684 86.4336 63.1323 87.6724 63.1342C89.4287 63.1417 91.1825 63.0025 92.9155 62.7181C92.8924 62.6819 92.8715 62.6444 92.8529 62.6058L93.4322 62.1648H93.4531L93.4864 61.8819C93.4864 61.8819 94.3783 61.9651 95.8329 62.0566C99.5408 61.0354 102.987 59.2338 105.94 56.7729L105.681 56.2154C106.113 56.0395 106.563 55.9111 107.023 55.8326C109.754 53.3609 111.964 50.3711 113.525 47.0375L113.675 46.6631L113.283 46.5549C107.176 44.7998 100.721 44.628 94.5284 46.0557C94.1449 46.3968 93.7698 46.7089 93.4239 46.9585L93.0196 46.4426Z" fill="#232323"/>
<path d="M83.8798 62.9386H83.9465L83.1129 62.1066H82.9921L82.9004 62.8305L83.8381 62.9345L83.8798 62.9386Z" fill="#232323"/>
<path d="M81.4042 52.0508L81.35 52.0966L81.8209 52.6499L81.8751 52.6042L82.2919 51.7721L81.4042 52.0508Z" fill="#232323"/>
<path d="M92.7612 69.7493L93.028 69.7909C92.1915 68.5509 91.2046 67.419 90.0897 66.4209C88.5518 65.8759 87.6516 65.4474 87.6224 65.4349L87.935 64.7817C86.7103 63.9731 85.3677 63.3584 83.9548 62.9595L84.6508 63.6501H83.7297C84.3216 63.7916 92.8988 66.0215 95.5328 77.5583C95.9495 79.4014 96.3205 81.0281 96.633 82.4759L96.9915 81.8935L97.2915 82.0724C97.0304 80.852 96.7275 79.4985 96.383 78.0118L95.7953 77.8329L95.9829 77.1257L96.1871 77.1756C96.1579 77.0508 96.1246 76.926 96.0912 76.8011L96.012 76.8344L95.887 76.8844L95.5244 76.252C95.644 76.1781 95.7678 76.1114 95.8954 76.0523C95.5589 74.8745 95.1326 73.7243 94.62 72.6116C94.1782 72.5118 93.9365 72.4743 93.9282 72.4743L94.0199 71.7504L94.2074 71.7837C93.9949 71.3677 93.7906 70.9516 93.5448 70.5938C93.1947 70.5522 92.8863 70.5148 92.6362 70.469L92.7612 69.7493Z" fill="#232323"/>
<path d="M98.5169 92.9185C96.3831 92.7854 85.8762 91.7161 81.0791 83.5659C76.3488 75.5363 75.4986 71.1928 75.3985 70.5938L75.0901 71.5132L74.6733 70.6811C74.7599 71.1968 74.8783 71.7068 75.0276 72.208H75.3902V72.9361H75.2485C75.8709 74.831 76.6257 76.68 77.5074 78.4694H78.0409L78.02 79.1933H77.87C78.5702 80.5995 79.4162 82.1722 80.4498 83.932C85.9846 93.3304 98.7587 93.659 98.8879 93.659H99.2338L99.2588 93.3137C99.2588 93.2388 99.3422 91.6496 97.5 83.025C97.2166 82.8628 96.9332 82.7005 96.6456 82.5258C98.1502 89.4945 98.4586 92.0781 98.5169 92.9185Z" fill="#232323"/>
<path d="M74.6608 70.6063C74.6623 70.6285 74.6623 70.6507 74.6608 70.6729L75.0775 71.505L75.386 70.5855C75.386 70.5397 75.386 70.5106 75.386 70.5106L74.6608 70.6063Z" fill="#232323"/>
<path d="M83.8423 62.9345L83.6964 63.6417H83.7297H84.6508L83.9548 62.9511L83.8798 62.9303L83.8423 62.9345Z" fill="#232323"/>
<path d="M71.2682 78.4944C72.127 76.7043 72.8243 74.8414 73.3521 72.9278H73.2021V72.1997H73.5438C73.6689 71.7046 73.7981 71.2054 73.9106 70.6895L73.4938 71.5216L73.1812 70.5855C68.7259 91.0297 51.6007 92.8603 48.8 93.0226C49.9336 73.9721 61.6908 66.2628 65.1667 64.3865H64.6666L65.7918 63.2632C64.3433 63.9514 62.9703 64.788 61.695 65.7594L61.7491 66.3877L60.7906 66.4584C58.9001 67.9798 57.1887 69.7105 55.6893 71.6173L55.7268 72.2081L55.2183 72.2413C53.8614 74.061 52.6913 76.0124 51.7257 78.0659L51.6632 78.769L51.409 78.7482C49.3916 83.3804 48.2526 88.3459 48.0498 93.3928V93.7756H48.4332C48.6083 93.7756 63.5955 93.5676 70.9765 79.1185L70.4097 78.923C70.4555 78.7274 70.5097 78.5818 71.2682 78.4944Z" fill="#232323"/>
<path d="M73.2104 70.4856L73.1854 70.5771L73.498 71.5132L73.9148 70.6811V70.6312L73.2104 70.4856Z" fill="#232323"/>
<path d="M65.8502 63.2382L65.7793 63.2714L64.6541 64.3948H65.1542C65.7418 64.0786 66.1044 63.9205 66.1253 63.9121L65.8502 63.2382Z" fill="#232323"/>
<path d="M46.9245 59.8267H46.8329C50.5838 61.8237 55.0558 63.3922 59.932 63.3922C62.025 63.3901 64.1072 63.0932 66.117 62.5101L65.1334 62.0192C50.8922 65.5514 38.6683 53.2824 36.7469 51.223C52.1676 39.5197 67.384 51.7638 68.8385 52.9828V52.0467C65.721 49.5879 50.9172 39.2452 35.9968 50.8901L35.6925 51.1273L35.9426 51.4185C38.8144 54.4927 42.1227 57.1294 45.7618 59.2442C46.116 59.1985 46.4578 59.161 46.8162 59.1069L46.9245 59.8267Z" fill="#232323"/>
<path d="M68.9509 53.0993L69.4344 52.5585C69.4344 52.5585 69.201 52.3546 68.8301 52.0592V52.9953L68.9509 53.0993Z" fill="#232323"/>
<path d="M66.1711 61.7571C65.8251 61.8611 65.4792 61.9485 65.1333 62.0317L66.1169 62.5226C66.2044 62.4976 66.2919 62.481 66.3836 62.4519L66.1711 61.7571Z" fill="#232323"/>
<path d="M70.2846 51.8803C68.7425 48.3981 62.6452 32.1725 76.1194 18.5222C77.9657 20.6357 89.1144 34.573 79.7287 52.5668L79.7787 52.5959L80.6706 52.3005C82.718 48.3109 83.8969 43.934 84.1298 39.4573L83.538 39.241C83.538 39.241 83.7422 38.696 84.159 37.8098C84.009 25.8279 76.5029 17.8399 76.3987 17.74L76.1403 17.4738L75.8777 17.7359C61.7449 31.7606 68.0299 48.5478 69.6261 52.1799L70.2846 52.5127V51.8803Z" fill="#232323"/>
<path d="M80.3581 52.9038C80.4664 52.6999 80.554 52.4878 80.654 52.3005L79.7621 52.5959L80.3581 52.9038Z" fill="#232323"/>
<path d="M70.6098 52.5667C70.6098 52.5667 70.4723 52.3005 70.2847 51.8802V52.5126L69.6262 52.1798C69.8221 52.625 69.9513 52.8871 69.9638 52.9079L70.6098 52.5667Z" fill="#232323"/>
<path d="M105.969 56.8894C106.006 56.8894 109.616 55.3209 120.16 56.9144C125.632 57.7625 131.186 57.9649 136.706 57.5176C132.23 59.7185 120.452 65.2477 110.933 67.3903C99.0921 70.0571 88.0476 64.8316 87.9392 64.7775C88.7002 65.2656 89.4208 65.8137 90.0939 66.4167C94.5306 67.9955 99.2001 68.8237 103.91 68.8672C106.328 68.8753 108.739 68.6158 111.099 68.0934C114.352 67.3208 117.553 66.3482 120.685 65.1811H120.577V64.453C120.61 64.453 121.369 64.453 122.661 64.453C128.187 62.3191 133.602 59.9086 138.886 57.2306L140.924 56.1738L138.661 56.5483C138.586 56.5483 130.929 57.7964 120.277 56.1863C112.921 55.0713 108.89 55.4541 107.015 55.8327C106.669 56.1489 106.306 56.4651 105.931 56.7729L105.969 56.8894Z" fill="#232323"/>
<path d="M105.923 56.7853C106.298 56.4775 106.661 56.1613 107.007 55.8451C106.547 55.9236 106.097 56.0519 105.665 56.2278L105.923 56.7853Z" fill="#232323"/>
<path d="M87.6224 65.4349C87.6516 65.4349 88.5518 65.8759 90.0897 66.4209C89.4166 65.8179 88.696 65.2697 87.935 64.7817L87.6224 65.4349Z" fill="#232323"/>
<path d="M163.017 70.2485C157.476 69.9076 151.987 68.9801 146.642 67.4818C137.119 64.9024 126.933 64.5155 122.652 64.4863C122.006 64.7318 121.352 64.9773 120.698 65.2144C121.948 65.1894 134.714 65.0438 146.45 68.2057C151.841 69.7161 157.378 70.6505 162.967 70.9932C164.096 71.0681 165.159 71.143 165.33 71.2969C165.551 71.5174 165.672 71.7629 165.613 71.8794C165.555 71.9959 165.217 72.4826 162.279 72.0416C157.915 71.3926 125.14 70.5855 116.942 70.5855C107.661 70.5855 96.3872 70.2943 93.0364 69.8117C93.2114 70.0696 93.3823 70.3359 93.5532 70.6104C97.8751 71.0931 109.457 71.3094 116.942 71.3094C126.191 71.3094 158.057 72.1415 162.171 72.7614C162.841 72.8713 163.518 72.9311 164.196 72.9403C165.342 72.9403 166.026 72.6948 166.28 72.208C166.493 71.792 166.334 71.2553 165.863 70.781C165.501 70.4149 164.721 70.3608 163.017 70.2485Z" fill="#232323"/>
<path d="M92.7613 69.7493L92.6362 70.4649C92.8863 70.5106 93.1947 70.5481 93.5448 70.5897C93.3739 70.3151 93.203 70.0488 93.028 69.7909L92.7613 69.7493Z" fill="#232323"/>
<path d="M120.568 64.4864V65.2144H120.677C121.331 64.9773 121.985 64.7318 122.631 64.4864C121.36 64.4531 120.602 64.4864 120.568 64.4864Z" fill="#232323"/>
<path d="M96.6456 82.5383V82.4759L96.6206 82.5133L96.6456 82.5383Z" fill="#232323"/>
<path d="M124.299 85.8583C121.027 87.069 110.362 89.9189 97.2916 82.0723C97.3625 82.4052 97.4333 82.7255 97.5 83.0375C104.277 86.965 110.42 88.0966 115.2 88.0966C121.573 88.0966 125.595 86.1121 125.666 86.0746L126.628 85.5837L125.566 85.3923C122.994 84.9347 117.334 82.8961 111.441 79.9422H109.828C115.484 82.8961 121.123 85.047 124.299 85.8583Z" fill="#232323"/>
<path d="M105.54 77.5126C106.94 78.3655 108.382 79.1768 109.824 79.9298V79.2017H110.028C108.653 78.4778 107.278 77.704 105.936 76.8885C104.685 76.123 103.522 75.4781 102.451 74.9248H100.901V74.1967H100.993C97.1958 72.3786 94.8618 71.8836 94.2117 71.7754C94.3534 72.0417 94.4909 72.3204 94.6284 72.6075C96.0955 72.9528 99.9131 74.0886 105.54 77.5126Z" fill="#232323"/>
<path d="M93.9282 72.4701C93.9282 72.4701 94.1783 72.5076 94.6201 72.6074C94.4867 72.3245 94.3492 72.0458 94.2033 71.7753L94.0157 71.7421L93.9282 72.4701Z" fill="#232323"/>
<path d="M96.9915 81.8934L96.6331 82.4759V82.5383C96.9206 82.713 97.204 82.8753 97.4874 83.0375C97.4208 82.7255 97.3499 82.4052 97.2791 82.0723L96.9915 81.8934Z" fill="#232323"/>
<path d="M61.6825 65.6512C61.4991 65.6512 43.4528 67.2363 29.4659 63.3921C22.4891 61.47 17.8213 57.4801 16.9627 52.7165C16.4542 49.8416 17.4753 47.1083 19.6342 45.5731C21.1763 44.4789 22.5975 44.1044 23.852 44.4622C25.2023 44.8492 26.0817 46.0099 26.5152 46.7297C25.5524 46.6423 23.8228 46.6506 22.4558 47.595C21.9465 47.9646 21.5211 48.4372 21.2072 48.982C20.8934 49.5269 20.6982 50.1317 20.6345 50.7569C20.4053 52.2838 21.0888 53.9396 22.5641 55.4083C25.9608 58.7948 34.1171 61.7279 46.8329 59.8225C46.4703 59.6269 46.1118 59.4314 45.7617 59.2275C33.8754 60.8251 26.2568 58.0876 23.0768 54.9173C21.7723 53.6151 21.1596 52.1839 21.3555 50.8901C21.408 50.3597 21.5717 49.8464 21.8359 49.3834C22.1001 48.9203 22.459 48.518 22.8892 48.2024C24.5897 47.0126 27.0903 47.5409 27.1153 47.5451L27.7905 47.6907L27.5279 47.05C27.4821 46.9418 26.4235 44.4373 24.0812 43.7633C22.6016 43.3472 20.9721 43.7633 19.2341 44.9823C16.846 46.6797 15.7082 49.6919 16.2542 52.8371C17.1503 57.8879 22.014 62.0899 29.27 64.0702C37.0262 66.2045 46.0076 66.6913 52.5552 66.6913C56.3645 66.6913 59.3402 66.5249 60.7823 66.4292C61.0948 66.1796 61.3949 65.9466 61.6867 65.7302L61.6825 65.6512Z" fill="#232323"/>
<path d="M61.6825 65.7344C61.3907 65.9507 61.0907 66.1837 60.7781 66.4333L61.7367 66.3626L61.6825 65.7344Z" fill="#232323"/>
<path d="M46.9245 59.8267L46.8162 59.1069C46.4577 59.161 46.116 59.1985 45.7617 59.2442C46.1118 59.4481 46.4702 59.6603 46.8328 59.8392L46.9245 59.8267Z" fill="#232323"/>
<path d="M51.7341 78.0243C51.4132 77.991 43.8612 77.3046 40.5354 78.6858C37.9305 79.7717 37.9514 82.3761 38.1514 83.6991C37.4262 83.2332 36.376 82.3054 36.4843 80.8659C36.6427 78.6983 40.0102 77.7456 40.0436 77.7331L41.5481 77.3171L40.0144 77.0258C39.1305 76.9235 38.239 76.9026 37.3512 76.9634C32.5298 77.1362 27.7051 76.7297 22.9809 75.7527C16.7293 74.5046 16.1041 70.8102 16.1333 69.2667C16.175 67.0949 17.467 65.0647 18.9548 64.8275C19.3483 64.7389 19.7559 64.7328 20.1519 64.8094C20.5479 64.886 20.9236 65.0438 21.2554 65.2727C21.7097 65.6402 22.0447 66.1339 22.2182 66.6914C21.522 66.6096 20.8203 66.7907 20.251 67.1989C19.8342 67.5151 18.8965 68.4471 19.6717 70.1653C20.9762 73.0776 30.5912 74.9165 38.7307 73.8348C45.7159 72.9029 53.2428 72.3662 55.235 72.233C55.3933 72.025 55.5475 71.817 55.7059 71.609V71.4717C55.6184 71.4717 46.762 72.0333 38.6432 73.1109C30.5245 74.1884 21.3971 72.2081 20.3469 69.8699C19.9301 68.9671 20.0593 68.2474 20.6928 67.7897C21.3263 67.3321 22.2348 67.3279 22.5058 67.5651L23.2101 68.1933L23.1101 67.253C22.9671 66.2522 22.4542 65.3409 21.6722 64.6985C21.2653 64.4073 20.8017 64.2046 20.3113 64.1035C19.821 64.0025 19.3148 64.0053 18.8256 64.1119C16.9793 64.4032 15.4373 66.708 15.3873 69.2542C15.3623 70.598 15.804 75.0788 22.8225 76.4683C27.5988 77.4559 32.4767 77.8665 37.3512 77.6915L38.2681 77.6707C37.1595 78.2531 35.855 79.26 35.7383 80.8118C35.5383 83.5036 38.3973 84.6768 38.5182 84.7267L39.235 85.0096L39.0016 84.2774C38.9558 84.1276 37.8597 80.5788 40.7979 79.3557C43.6362 78.1783 50.0586 78.6193 51.3965 78.7274C51.5007 78.4944 51.609 78.2698 51.7132 78.0451L51.7341 78.0243Z" fill="#232323"/>
<path d="M55.7309 72.1997L55.6934 71.6089C55.535 71.8127 55.3808 72.0249 55.2224 72.2329L55.7309 72.1997Z" fill="#232323"/>
<path d="M51.73 78.045C51.6258 78.2697 51.5174 78.4944 51.4132 78.7274L51.6674 78.7482L51.73 78.045Z" fill="#232323"/>
<path d="M121.002 75.6528C129.542 76.4849 141.374 77.109 146.488 76.6555L148.721 76.4475C151.693 76.1646 155.061 75.8442 155.39 76.2727C155.404 76.3187 155.408 76.3672 155.4 76.4148C155.393 76.4623 155.375 76.5076 155.348 76.5473C154.906 77.1256 152.197 77.3794 149.888 77.5666C144.887 77.9369 130.154 78.7523 123.027 79.0228C116.567 79.2682 111.016 79.2183 110.012 79.2058C110.487 79.4596 110.966 79.7051 111.441 79.9422H112.379C114.813 79.9422 118.735 79.9089 123.052 79.7425C130.188 79.4721 144.941 78.6608 149.943 78.2905C153.848 77.9993 155.415 77.6581 155.927 76.98C156.015 76.862 156.076 76.7268 156.107 76.5833C156.138 76.4398 156.138 76.2914 156.107 76.1479C155.894 75.0953 153.798 75.2534 148.651 75.7319L146.421 75.9399C141.357 76.3892 129.579 75.761 121.069 74.9372C113.046 74.1634 102.051 74.205 100.988 74.2092C101.447 74.4297 101.934 74.6751 102.435 74.9372C105.86 74.9331 114.442 75.0204 121.002 75.6528Z" fill="#232323"/>
<path d="M100.901 74.9289H102.435C101.934 74.6668 101.447 74.4213 100.988 74.2008H100.897L100.901 74.9289Z" fill="#232323"/>
<path d="M109.832 79.2017V79.9297H111.445C110.97 79.6926 110.491 79.4471 110.016 79.1934L109.832 79.2017Z" fill="#232323"/>
<path d="M73.3522 72.9278H75.2485C75.1651 72.6615 75.0901 72.4202 75.0276 72.1997H73.5439C73.4814 72.4452 73.4189 72.6906 73.3522 72.9278Z" fill="#232323"/>
<path d="M75.3901 72.9278V72.1997H75.0192C75.0817 72.4202 75.1567 72.6615 75.2401 72.9278H75.3901Z" fill="#232323"/>
<path d="M73.202 72.1997V72.9278H73.3521C73.4187 72.6906 73.4813 72.4452 73.5438 72.1997H73.202Z" fill="#232323"/>
<path d="M71.2682 78.4944C71.1682 78.7024 71.0682 78.9105 70.964 79.0977L71.0849 79.1393C71.0664 79.2022 71.0247 79.2557 70.9682 79.2891C71.3349 79.1185 73.6605 79.0894 77.8699 79.1975C77.7449 78.9479 77.624 78.7024 77.5073 78.4611C73.8647 78.3696 72.1018 78.3946 71.2682 78.4944Z" fill="#232323"/>
<path d="M78.0408 78.4778H77.5073C77.624 78.7191 77.7449 78.9645 77.8699 79.2142H78.02L78.0408 78.4778Z" fill="#232323"/>
<path d="M70.3972 78.9021L70.964 79.0976C71.0682 78.8979 71.1682 78.6816 71.2683 78.4944C70.5097 78.5818 70.4556 78.7274 70.3972 78.9021Z" fill="#232323"/>
<path d="M84.1882 39.4906C84.2215 39.3991 87.7308 30.0382 97.65 22.096C103.606 17.3323 107.357 15.8803 110.666 14.6072C112.958 13.7169 114.996 12.9431 117.334 11.204C114.909 14.9484 109.624 23.1402 106.752 28.1909C102.826 35.0972 96.5914 43.7883 92.9488 46.3844L92.9946 46.451C93.4781 46.3178 93.9699 46.193 94.4783 46.0765C98.3501 42.6359 103.831 34.806 107.398 28.5487C111.178 21.8921 119.151 9.77283 119.23 9.65218L120.752 7.33899L118.668 9.18205C115.605 11.9071 113.187 12.8432 110.391 13.9291C107.032 15.2271 103.222 16.6999 97.179 21.5385C91.6668 25.9292 87.2035 31.4904 84.1132 37.8181C84.1132 38.359 84.1132 38.9082 84.084 39.4823L84.1882 39.4906Z" fill="#232323"/>
<path d="M93.3989 46.971C93.7448 46.7214 94.1199 46.4094 94.5034 46.0682C93.9949 46.1847 93.5031 46.3095 93.0197 46.4427L93.3989 46.971Z" fill="#232323"/>
<path d="M84.1132 39.4573C84.1382 38.8998 84.1507 38.3506 84.1424 37.7931C83.7256 38.6793 83.5255 39.2035 83.5214 39.2243L84.1132 39.4573Z" fill="#232323"/>
<path d="M87.4808 43.9047L87.164 43.859L87.5808 43.7841C88.1893 42.8522 88.8311 41.8745 89.5188 40.8718C90.2065 39.8691 90.89 38.8914 91.6026 37.8721C91.9569 37.3937 92.307 36.9069 92.6654 36.416C92.5233 36.3823 92.384 36.3378 92.2486 36.2829L92.8405 36.1622C93.1655 35.7171 93.4948 35.2719 93.8324 34.8351C94.6118 33.8407 95.3536 32.8131 96.1496 31.8562C96.9457 30.8993 97.6917 29.9258 98.4711 29.0354L99.1337 28.2658L98.4419 28.4613C98.711 28.3251 98.9896 28.2083 99.2754 28.1118C99.7672 27.5419 100.255 26.9844 100.742 26.4685C101.484 25.678 102.155 24.8958 102.826 24.2385L104.652 22.4079C105.214 21.8795 105.702 21.4177 106.077 21.01C106.487 20.5848 106.859 20.1255 107.19 19.6371C106.672 19.9181 106.178 20.2424 105.715 20.6065C105.186 21.0135 104.678 21.4468 104.193 21.9045C103.635 22.4454 103.01 23.0611 102.326 23.7268C101.909 24.1428 101.493 24.5588 101.051 25.0373L100.884 25.6655C100.922 25.4866 100.968 25.2869 101.018 25.0747C100.747 25.3618 100.476 25.653 100.184 25.9526C99.4213 26.7389 98.667 27.6167 97.8793 28.5112C97.0916 29.4057 96.2747 30.3709 95.4911 31.3195C95.2911 31.5608 95.0994 31.8104 94.8993 32.0517L94.7951 32.7257C94.7193 32.6325 94.6549 32.5305 94.6034 32.422C94.1116 33.0405 93.6226 33.6674 93.1364 34.3025C92.3528 35.3093 91.6235 36.3494 90.8775 37.3563C90.1314 38.3631 89.4438 39.3907 88.7936 40.3767L88.5977 40.6679L88.4393 41.5707C88.3772 41.4185 88.3338 41.2592 88.3101 41.0965C87.1682 42.8022 86.1304 44.4248 85.2719 45.8643C83.2839 49.1177 82.1002 51.381 82.1002 51.381L82.2252 51.4476C82.5128 51.2437 82.8712 51.0024 83.3005 50.7278C83.8423 49.7792 84.7551 48.2316 85.9679 46.2928C86.418 45.5439 86.9348 44.741 87.4808 43.9047Z" fill="#232323"/>
<path d="M101.034 25.0374L101.001 25.0748C100.951 25.287 100.905 25.4908 100.868 25.6656L101.034 25.0374Z" fill="#232323"/>
<path d="M99.1295 28.2574L99.2587 28.1035C98.9729 28.1999 98.6943 28.3167 98.4252 28.453L99.1295 28.2574Z" fill="#232323"/>
<path d="M82.7253 51.7263C82.7253 51.7263 82.9212 51.3643 83.2838 50.7278C82.867 51.0024 82.4961 51.2437 82.2085 51.4475L82.7253 51.7263Z" fill="#232323"/>
<path d="M95.8871 25.7238C95.8871 25.7238 93.6532 30.5082 94.6034 32.422C94.6993 32.2972 94.7993 32.1765 94.8993 32.0517L95.8871 25.7238Z" fill="#232323"/>
<path d="M94.8993 32.0352C94.7993 32.16 94.6993 32.2806 94.6034 32.4054C94.6549 32.514 94.7193 32.6159 94.7951 32.7091L94.8993 32.0352Z" fill="#232323"/>
<path d="M97.1623 35.272L92.8362 36.154L92.6487 36.4078C94.7159 36.9445 97.1623 35.272 97.1623 35.272Z" fill="#232323"/>
<path d="M92.6488 36.4077L92.8363 36.1539L92.2445 36.2746C92.3758 36.3289 92.5109 36.3734 92.6488 36.4077Z" fill="#232323"/>
<path d="M89.4813 35.6381C89.4813 35.6381 87.9809 39.1786 88.2935 41.0965L88.581 40.6805L89.4813 35.6381Z" fill="#232323"/>
<path d="M88.581 40.668L88.2935 41.084C88.3171 41.2467 88.3605 41.406 88.4227 41.5583L88.581 40.668Z" fill="#232323"/>
<path d="M92.6987 42.8231L87.5599 43.7842L87.4807 43.9048C89.291 44.1071 91.1188 43.7282 92.6987 42.8231Z" fill="#232323"/>
<path d="M87.4808 43.9048L87.56 43.7842L87.1432 43.8591L87.4808 43.9048Z" fill="#232323"/>
<path d="M87.3932 56.7563C87.9642 56.6024 88.5726 56.4484 89.1895 56.2571C90.4398 55.9034 91.7443 55.4583 93.0405 54.9881C94.3366 54.518 95.6286 54.0188 96.7914 53.4987C97.9542 52.9787 99.0712 52.4794 99.9839 51.9885C101.012 51.4753 102.011 50.9059 102.976 50.2827C102.976 50.2827 101.726 50.8277 99.8088 51.614C98.8544 51.9926 97.75 52.4461 96.5497 52.9079C95.3494 53.3697 94.049 53.8523 92.7695 54.2767C91.4901 54.7011 90.1689 55.1088 88.9394 55.4707C88.3309 55.6621 87.7308 55.8119 87.1639 55.9617C86.5971 56.1114 86.0595 56.2487 85.5594 56.3777C84.705 56.5982 83.9756 56.7563 83.413 56.8728L82.967 57.318L83.7547 57.5842C84.3007 57.4844 84.9759 57.3471 85.7469 57.1682C86.2721 57.0517 86.818 56.9102 87.3932 56.7563Z" fill="#232323"/>
<path d="M83.4339 56.8602L83.1671 56.9143L82.2502 57.1057L82.3753 57.8254L83.313 57.6549L83.7756 57.5717L82.9879 57.3054L83.4339 56.8602Z" fill="#232323"/>
<path d="M65.1584 57.5675C64.7708 57.4926 64.3248 57.4385 63.858 57.3304C61.9617 56.9476 59.4444 56.3236 56.9521 55.583C54.4598 54.8424 51.98 54.0769 50.1337 53.4487C49.3882 53.1903 48.6284 52.975 47.8581 52.8038C47.2955 52.6874 46.962 52.6458 46.962 52.6458C46.962 52.6458 47.2371 52.8371 47.7414 53.12C48.4404 53.4919 49.1645 53.8144 49.9086 54.0853C51.7466 54.7592 54.2139 55.6204 56.7145 56.3901C57.9649 56.7729 59.2152 57.114 60.4197 57.4177C61.0115 57.5758 61.595 57.6965 62.1451 57.8338C62.6952 57.9711 63.2245 58.046 63.7038 58.1416C64.1831 58.2373 64.6416 58.2914 65.0375 58.3538C65.1175 58.369 65.1981 58.3801 65.2792 58.3871L66.4379 58.0044L66.2586 57.7339H66.1586C65.8836 57.684 65.5418 57.6424 65.1584 57.5675Z" fill="#232323"/>
<path d="M65.2792 58.383C65.5709 58.4288 65.846 58.4621 66.071 58.4746L66.9796 58.5578L67.0338 57.8297L66.2586 57.7299L66.4378 58.0003L65.2792 58.383Z" fill="#232323"/>
<path d="M75.2234 44.4498C75.2567 43.0477 75.2692 41.5375 75.2734 40.0564C75.2734 37.0651 75.3401 34.0737 75.2401 31.8313C75.1942 30.708 75.1609 29.7511 75.1067 29.1187C75.0525 28.4863 75.0233 28.0869 75.0233 28.0869C75.0233 28.0869 74.9733 28.4614 74.9108 29.1145C74.8483 29.7677 74.7733 30.6996 74.6941 31.823C74.5274 34.0613 74.4857 37.0526 74.4107 40.0398C74.369 41.5375 74.3357 43.0311 74.3273 44.4332C74.319 45.8352 74.2981 47.1416 74.2856 48.2649C74.2856 49.1968 74.2856 49.9915 74.2856 50.6114L75.0233 51.718C75.0442 51.173 75.09 49.9374 75.1359 48.2982C75.1692 47.1582 75.1942 45.8477 75.2234 44.4498Z" fill="#232323"/>
<path d="M74.2941 52.0051H74.3399L74.2941 51.9343V52.0051Z" fill="#232323"/>
<path d="M74.2856 50.6113C74.2856 51.302 74.2856 51.7721 74.2856 51.9343L74.3315 52.0051H75.015C75.015 52.0051 75.015 51.8927 75.015 51.6889L74.2856 50.6113Z" fill="#232323"/>
<path d="M67.4673 69.1002C67.1255 69.4705 66.7338 69.8574 66.3628 70.2984C65.9919 70.7394 65.5793 71.1929 65.1917 71.6838C64.3998 72.6615 63.5621 73.7099 62.7911 74.8C61.2365 76.98 59.7528 79.2017 58.7192 80.9158C58.306 81.6123 57.9331 82.3318 57.6023 83.0709C57.3689 83.6117 57.2563 83.9321 57.2563 83.9321C57.9965 83.0975 58.6841 82.218 59.3152 81.2985L61.2365 78.4902C61.9492 77.4709 62.7161 76.41 63.5163 75.3325C64.3165 74.255 65.1084 73.2149 65.8877 72.2496C66.6671 71.2844 67.4298 70.4232 68.0925 69.6868C68.4134 69.3124 68.7426 69.0087 69.0177 68.7174C69.2928 68.4262 69.5512 68.1891 69.7637 67.9977L70.2847 67.5151V67.4319L68.6176 67.9894L68.4634 68.135C68.1633 68.4221 67.809 68.7299 67.4673 69.1002Z" fill="#232323"/>
<path d="M70.2847 67.5151C70.3722 67.4402 70.4222 67.3903 70.4222 67.3903L69.968 66.8245L69.2469 67.4194C69.0552 67.5692 68.8302 67.7689 68.6051 67.9894L70.2722 67.4319L70.2847 67.5151Z" fill="#232323"/>
<path d="M80.6623 68.5136C81.292 69.0371 81.8943 69.5925 82.4669 70.1777C82.8087 70.5522 83.1963 70.9516 83.5672 71.4051C83.9381 71.8585 84.3382 72.3287 84.7175 72.8446C85.0968 73.3604 85.4635 73.9096 85.8428 74.4629C86.2221 75.0163 86.543 75.6237 86.8931 76.2103C87.2432 76.7969 87.5474 77.4127 87.8433 78.0159C88.1392 78.6192 88.406 79.2308 88.6769 79.8174C88.9478 80.404 89.1311 80.9989 89.3395 81.5481C89.5479 82.0973 89.6938 82.6381 89.8563 83.1291C90.0189 83.62 90.1564 84.0693 90.2731 84.4646C90.3898 84.8598 90.5273 85.2134 90.644 85.4922C90.7626 85.7954 90.9018 86.0901 91.0608 86.3742C91.0745 86.0509 91.0662 85.727 91.0358 85.4048C91.015 85.0969 90.9733 84.7225 90.9024 84.3023C90.8279 83.8311 90.7164 83.3665 90.569 82.9127C90.4148 82.4093 90.2731 81.856 90.0772 81.2902C89.8813 80.7244 89.6604 80.1253 89.4312 79.5054C89.202 78.8855 88.9061 78.278 88.631 77.6415C88.3559 77.005 88.01 76.3934 87.6974 75.7652C87.3849 75.1369 86.9889 74.5503 86.6097 73.9679C86.2304 73.3854 85.8553 72.8196 85.4385 72.3037C85.0218 71.7878 84.6425 71.2802 84.2424 70.8226C83.8423 70.3649 83.438 69.9572 83.0713 69.5745C82.4619 68.9737 81.8161 68.411 81.1374 67.8895C80.8832 67.7064 80.6915 67.565 80.5414 67.4735L80.4914 67.4402V68.2307L79.9413 67.9561L80.1247 68.085C80.2455 68.1849 80.4372 68.3305 80.6623 68.5136Z" fill="#232323"/>
<path d="M80.4915 67.4527L80.3248 67.3445L79.9288 67.9602L80.479 68.2348L80.4915 67.4527Z" fill="#232323"/>
<path d="M98.9128 78.8355L98.8878 78.7981L99.4505 78.3363C99.4505 78.3363 99.6547 78.5401 99.9339 78.8688C100.046 78.9978 100.171 79.1559 100.305 79.3223L102.576 80.1544C104.243 80.7784 105.91 81.4524 107.219 81.8809C108.528 82.3095 109.374 82.5757 109.374 82.5757C109.374 82.5757 108.607 82.0848 107.394 81.4732C106.832 81.1737 106.144 80.8617 105.444 80.5455C105.248 80.6245 105.056 80.7036 104.902 80.7535C104.677 80.8325 104.518 80.87 104.518 80.87L104.248 80.1918L104.427 80.1045C103.91 79.8881 103.385 79.6676 102.851 79.4513C101.184 78.7565 99.4713 78.1532 98.1751 77.7372C97.2374 77.4501 96.508 77.2629 96.1871 77.1797C96.1871 77.2546 96.2246 77.3253 96.2455 77.4002C96.2913 77.6124 96.3372 77.8162 96.383 78.0201C96.7581 78.1241 97.2874 78.2988 97.9251 78.511L98.9128 78.8355Z" fill="#232323"/>
<path d="M96.1872 77.1714L95.983 77.1215L95.7954 77.8287L96.3831 78.0076C96.3372 77.7996 96.2914 77.5916 96.2455 77.3877C96.2247 77.317 96.2038 77.2463 96.1872 77.1714Z" fill="#232323"/>
<path d="M105.715 80.429C106.01 80.2917 106.311 80.1627 106.548 80.042C106.786 79.9214 106.927 79.8382 106.927 79.8382C106.791 79.8027 106.651 79.779 106.511 79.7675C106.365 79.7586 106.219 79.7586 106.073 79.7675L105.573 79.8049L105.081 79.9006C104.927 79.9339 104.785 79.988 104.664 80.0254L104.456 80.1128C104.806 80.2584 105.144 80.4082 105.473 80.5538L105.715 80.429Z" fill="#232323"/>
<path d="M104.518 80.8616C104.518 80.8616 104.677 80.8242 104.902 80.7452C105.056 80.6952 105.248 80.6162 105.444 80.5371C105.114 80.3915 104.777 80.2417 104.427 80.0961L104.248 80.1835L104.518 80.8616Z" fill="#232323"/>
<path d="M98.9128 78.8356C98.9629 78.9105 99.1046 79.1102 99.3296 79.3764C99.5964 79.7134 99.9756 80.1419 100.372 80.5621C100.563 80.7743 100.788 80.9782 100.972 81.1612C101.155 81.3443 101.359 81.5149 101.522 81.6605C101.855 81.9434 102.101 82.114 102.101 82.114C102.002 81.8905 101.89 81.6725 101.768 81.4608C101.655 81.2736 101.539 81.0447 101.384 80.8201C101.23 80.5954 101.084 80.35 100.913 80.117C100.742 79.884 100.497 79.5678 100.322 79.3223L100.113 79.2474C99.6839 79.0977 99.2879 78.9604 98.9128 78.8356Z" fill="#232323"/>
<path d="M99.4505 78.3363L98.8878 78.7981L98.9128 78.8356C99.2879 78.9604 99.6839 79.0977 100.096 79.2516L100.305 79.3265C100.171 79.1601 100.046 79.002 99.9339 78.873C99.6547 78.5402 99.4505 78.3363 99.4505 78.3363Z" fill="#232323"/>
<path d="M97.4458 76.3726C97.8625 76.281 98.2793 76.202 98.6169 76.1021C98.8037 76.0552 98.9874 75.9968 99.167 75.9274C98.9892 75.8473 98.8013 75.7913 98.6086 75.761C98.197 75.6793 97.7753 75.661 97.3582 75.7069C96.9313 75.7356 96.5104 75.8238 96.1079 75.969C96.0412 75.994 95.9829 76.0231 95.9287 76.048C95.9954 76.2935 96.0621 76.5431 96.1246 76.7969L96.3788 76.6971C96.7286 76.5705 97.0847 76.4622 97.4458 76.3726Z" fill="#232323"/>
<path d="M95.5244 76.2478L95.887 76.8802L96.012 76.8303L96.0912 76.797C96.0287 76.5432 95.962 76.2936 95.8953 76.0481C95.7678 76.1072 95.6439 76.1739 95.5244 76.2478Z" fill="#232323"/>
<path d="M93.8324 62.6766C94.5201 62.7639 95.9621 62.9262 97.8584 63.051C99.0004 63.1384 100.313 63.1841 101.714 63.2174C101.598 63.1262 101.488 63.0275 101.384 62.922L101.872 62.3812L102.385 62.7473C102.58 62.8804 102.801 63.051 103.068 63.2382C104.568 63.2382 106.144 63.2382 107.723 63.155C108.353 63.1259 108.974 63.0884 109.607 63.0427C109.457 62.9428 109.37 62.8721 109.37 62.8721L109.741 62.248L109.924 62.3229C110.032 62.3812 110.203 62.4436 110.395 62.5351L111.229 62.9179C111.825 62.8679 112.412 62.8097 112.983 62.7431C113.817 62.6558 114.65 62.5642 115.392 62.4436C116.134 62.3229 116.88 62.2272 117.538 62.0816C118.197 61.936 118.789 61.8029 119.331 61.6656C119.872 61.5283 120.318 61.3702 120.689 61.2495C121.435 60.9999 121.856 60.8335 121.856 60.8335C121.856 60.8335 121.402 60.8626 120.606 60.95C120.214 60.9874 119.747 61.0582 119.21 61.133C118.672 61.2079 118.059 61.2662 117.401 61.3535C116.742 61.4409 116.021 61.5283 115.267 61.6323C114.792 61.6989 114.3 61.7571 113.792 61.807C113.662 61.9651 113.537 62.1107 113.421 62.2231C113.292 62.3719 113.153 62.511 113.004 62.6391L112.479 62.1315C112.479 62.1315 112.541 62.0483 112.65 61.9235C111.062 62.0775 109.374 62.1731 107.682 62.2314C106.794 62.273 105.902 62.2688 105.027 62.298H102.46C101.918 62.298 101.397 62.298 100.884 62.2688C100.697 62.4144 100.509 62.5351 100.347 62.6391C100.159 62.7661 99.9624 62.8801 99.7589 62.9803L99.3421 62.3728L99.513 62.2314L97.8834 62.1731C97.0999 62.1399 96.4039 62.1024 95.7996 62.065C95.1327 62.248 94.4409 62.4061 93.7157 62.5476L93.8324 62.6766Z" fill="#232323"/>
<path d="M93.7449 62.5518C94.4576 62.4103 95.1494 62.2522 95.8287 62.0691C94.3742 61.9776 93.4823 61.8944 93.4823 61.8944L93.449 62.1773C93.5454 62.2705 93.6333 62.3721 93.7115 62.481L93.7449 62.5518Z" fill="#232323"/>
<path d="M113.808 61.8028C113.962 61.6197 114.121 61.42 114.275 61.2162C114.867 60.4673 115.388 59.6477 115.388 59.6477C115.388 59.6477 114.583 60.1927 113.858 60.8126C113.514 61.0816 113.185 61.3706 112.875 61.678C112.783 61.7695 112.716 61.8444 112.654 61.9151L112.896 61.8902C113.208 61.8652 113.508 61.8319 113.808 61.8028Z" fill="#232323"/>
<path d="M113.008 62.6308C113.157 62.5026 113.296 62.3636 113.425 62.2147C113.542 62.0983 113.667 61.9526 113.796 61.7987C113.496 61.8278 113.196 61.8611 112.883 61.8861L112.641 61.911C112.533 62.0359 112.47 62.1191 112.47 62.1191L113.008 62.6308Z" fill="#232323"/>
<path d="M110.028 63.2923C110.516 63.5579 111.03 63.7726 111.562 63.933C112.091 64.0987 112.636 64.2088 113.187 64.2617C113.44 64.2918 113.696 64.3002 113.95 64.2866C113.95 64.2866 113.687 64.1202 113.291 63.9122C112.896 63.7042 112.375 63.4379 111.849 63.1966L111.249 62.9178C110.716 62.9678 110.174 63.0094 109.628 63.0427C109.716 63.1134 109.845 63.2008 110.028 63.2923Z" fill="#232323"/>
<path d="M109.924 62.3229L109.741 62.248L109.37 62.8721C109.37 62.8721 109.457 62.9428 109.607 63.0427C110.153 63.0094 110.695 62.9678 111.228 62.9179L110.395 62.5351C110.203 62.4436 110.028 62.3812 109.924 62.3229Z" fill="#232323"/>
<path d="M100.922 62.248C101.126 62.0982 101.338 61.9401 101.555 61.7612C101.972 61.4201 102.389 61.0581 102.689 60.7752C102.989 60.4923 103.176 60.2843 103.176 60.2843C103.176 60.2843 102.914 60.38 102.535 60.5423C102.155 60.7045 101.664 60.9583 101.184 61.2079C100.943 61.3244 100.709 61.47 100.488 61.599C100.287 61.7115 100.092 61.8352 99.9047 61.9693C99.7505 62.0733 99.6255 62.1648 99.5338 62.2355C99.9714 62.2355 100.422 62.2647 100.888 62.273L100.922 62.248Z" fill="#232323"/>
<path d="M99.763 62.9843C99.9665 62.8841 100.163 62.7702 100.351 62.6432C100.513 62.5392 100.701 62.4185 100.888 62.2729C100.422 62.2729 99.9714 62.2521 99.5338 62.2355L99.3629 62.3769L99.763 62.9843Z" fill="#232323"/>
<path d="M101.714 63.2382L101.934 63.4004C102.348 63.6871 102.788 63.935 103.247 64.141C103.735 64.3781 104.243 64.582 104.623 64.7276C105.002 64.8732 105.273 64.9439 105.273 64.9439L104.743 64.5279C104.418 64.2824 103.989 63.9538 103.56 63.6376C103.393 63.5086 103.226 63.3879 103.068 63.2714H102.451L101.714 63.2382Z" fill="#232323"/>
<path d="M101.872 62.3811L101.384 62.922C101.487 63.0274 101.597 63.1261 101.714 63.2173H102.451H103.068C102.814 63.0301 102.58 62.8596 102.385 62.7264L101.872 62.3811Z" fill="#232323"/>
<path d="M93.7198 63.6542C93.9657 63.8997 94.2366 64.1243 94.4366 64.2949C94.6367 64.4655 94.7951 64.5653 94.7951 64.5653C94.7951 64.5653 94.7326 64.3948 94.6284 64.1493C94.5242 63.9038 94.37 63.5918 94.2116 63.2881C94.1011 63.0788 93.9787 62.876 93.8448 62.6807L93.4031 62.6224C93.2405 62.6516 93.078 62.689 92.9113 62.714C92.9639 62.7997 93.0224 62.8817 93.0863 62.9594C93.2776 63.2083 93.4895 63.4408 93.7198 63.6542Z" fill="#232323"/>
<path d="M93.3864 62.6182L93.4365 62.1772H93.4156L92.8363 62.6182C92.8549 62.6569 92.8758 62.6944 92.8988 62.7306C93.0655 62.7056 93.2281 62.6682 93.3906 62.6391L93.3864 62.6182Z" fill="#232323"/>
<path d="M93.3906 62.6183L93.8324 62.6766L93.7449 62.5518L93.3906 62.6183Z" fill="#232323"/>
<path d="M93.3906 62.6182L93.7449 62.5517L93.6991 62.481C93.6208 62.3721 93.533 62.2704 93.4365 62.1772L93.3865 62.6182H93.3906Z" fill="#232323"/>
<path d="M98.5169 92.9144C96.3788 92.7854 85.8761 91.7162 81.0791 83.566C76.3487 75.5322 75.4985 71.1971 75.3943 70.5938L75.9653 68.8922L77.1031 69.4788C78.1283 73.0069 82.5545 85.4922 94.7117 89.6485C94.7117 89.6485 94.595 72.9403 81.7251 65.6721L81.4542 65.127H82.9129L82.1835 63.6709H83.7339C84.3257 63.8124 92.9029 66.0465 95.5453 77.575C95.9621 79.4264 96.3288 81.0489 96.6456 82.4967L96.6164 82.5383C96.6164 82.5383 96.6456 82.5383 96.6581 82.5383C98.1501 89.4945 98.4585 92.0782 98.5169 92.9144Z" fill="#FFF7D8"/>
<path d="M73.1854 70.5772C68.7343 91.0256 51.6049 92.852 48.8042 93.0101C49.9378 73.9637 61.6908 66.2545 65.1709 64.3782H65.7377C63.137 67.2031 53.9889 77.783 53.1595 88.1715C53.1595 88.1715 64.3082 87.0233 71.7434 70.7519V71.3801L72.7728 69.3291L73.1854 70.5772Z" fill="#FFF7D8"/>
<path d="M68.8301 52.9912V54.1935H67.0005C54.3097 46.4676 42.9527 51.9095 42.9527 51.9095C47.3496 59.5563 61.4241 60.3468 65.7877 60.4008L66.392 61.0041L64.7249 61.8362L65.1417 62.0317C50.9005 65.5681 38.6766 53.2949 36.7594 51.2438C52.1717 39.5239 67.3839 51.7763 68.8301 52.9912Z" fill="#FFF7D8"/>
<path d="M79.7121 52.5709H79.7621L79.5788 52.6374L78.8161 51.0939C83.4006 32.9629 75.3902 23.8141 75.3902 23.8141C67.4298 31.6149 70.3597 45.8976 71.8309 51.2479L70.2847 50.2119V51.8761C68.7426 48.3897 62.6494 32.1724 76.1195 18.5221C77.9367 20.6356 89.0979 34.5771 79.7121 52.5709Z" fill="#FFF7D8"/>
<path d="M112.662 47.1582C111.445 49.7335 103.464 64.661 83.1129 62.1356L82.8878 61.911L84.6383 60.7461C105.085 58.9779 108.007 48.7766 108.007 48.7766C98.5293 47.5909 88.6685 51.4351 83.3838 53.9812L83.7214 53.4862H81.4458L81.8626 52.6291C82.7795 51.8802 94.9951 42.4361 112.662 47.1582Z" fill="#FFF7D8"/>
<path d="M77.2198 62.1689C76.5321 63.4919 75.5277 64.3781 75.0234 64.3781C74.3691 64.3781 73.0396 63.5918 72.0643 62.5392C72.3193 62.6153 72.5799 62.6709 72.8437 62.7056C73.6337 62.8259 74.4416 62.6994 75.1568 62.3436C75.5108 62.1649 75.823 61.9135 76.0729 61.6059C76.3229 61.2983 76.5049 60.9415 76.6072 60.5588C76.678 60.2042 76.6948 59.8409 76.6572 59.4813C76.6367 59.1327 76.5548 58.7905 76.4154 58.4703C76.2876 58.1881 76.0982 57.9379 75.8611 57.7381C75.9347 57.734 76.0085 57.734 76.082 57.7381C76.365 57.7577 76.6388 57.847 76.8788 57.998C77.1188 58.149 77.3176 58.357 77.4574 58.6034C78.0409 59.4106 77.9367 60.7419 77.2198 62.1689Z" fill="#F9C44E"/>
<path d="M73.3521 59.2525C73.0257 59.2318 72.7042 59.3395 72.4564 59.5526C72.2087 59.7657 72.0544 60.0672 72.0267 60.3925C71.9726 60.9957 72.4102 61.8653 73.1145 61.8653C73.4415 61.886 73.7637 61.7777 74.0115 61.5637C74.2594 61.3497 74.4132 61.0472 74.4398 60.7212C74.4857 60.1221 74.0481 59.2525 73.3521 59.2525Z" fill="#FFE69F"/>
<path d="M32.7834 75.424C39.681 75.424 46.5745 75.1036 53.4721 74.8291C52.8678 75.8192 52.2843 76.8801 51.7341 78.0201C51.4174 77.991 43.8654 77.3003 40.5313 78.6858C37.9306 79.7675 37.9514 82.3719 38.1515 83.699C37.4263 83.2331 36.3802 82.3095 36.4844 80.8658C36.6469 78.6982 40.0145 77.7455 40.0478 77.7372L41.5565 77.3211L40.0186 77.0299C39.1335 76.9255 38.2405 76.9033 37.3513 76.9633C32.5313 77.1423 27.7074 76.7371 22.9851 75.7568C16.7335 74.5087 16.1125 70.8143 16.1417 69.2749V69.2208C17.4879 71.4633 19.7926 73.1524 22.2724 74.0843C25.5983 75.3283 29.2367 75.424 32.7834 75.424Z" fill="#5B3B2D"/>
<path d="M77.5199 78.457C73.8731 78.3696 72.131 78.3946 71.2683 78.4944C71.9054 77.178 72.4486 75.8183 72.8937 74.4255C73.8648 74.4255 74.8276 74.463 75.8111 74.4921C76.2029 75.5863 76.7572 76.901 77.5199 78.457Z" fill="#5B3B2D"/>
<path d="M155.348 76.5515C154.902 77.1339 152.197 77.4043 149.888 77.5791C144.887 77.941 130.15 78.7565 123.027 79.0269C116.563 79.2724 111.016 79.2224 110.012 79.2141C109.117 78.7454 108.222 78.2517 107.328 77.733C118.975 78.3648 130.652 78.262 142.286 77.4251C144.712 77.2504 147.175 77.0424 149.509 76.385C152.264 76.1229 155.094 75.8899 155.39 76.2852C155.404 76.3297 155.408 76.377 155.401 76.4233C155.393 76.4695 155.375 76.5134 155.348 76.5515Z" fill="#5B3B2D"/>
<path d="M165.609 71.8585C165.58 71.9168 165.217 72.4618 162.275 72.0208C157.911 71.3718 125.14 70.5647 116.938 70.5647C107.653 70.5647 96.383 70.2734 93.0321 69.7908C92.1969 68.5511 91.2099 67.4205 90.0939 66.425C94.5324 68.0021 99.203 68.8303 103.914 68.8755C106.331 68.8821 108.74 68.6212 111.099 68.0975C111.912 67.9145 112.733 67.7106 113.567 67.4776C124.061 68.3097 134.554 69.1418 145.045 69.9739C148.763 70.2734 152.51 70.5647 156.219 70.2568C159.207 70.7186 161.437 70.8684 162.967 70.9724C164.1 71.0514 165.163 71.1221 165.338 71.2761C165.551 71.4966 165.667 71.742 165.609 71.8585Z" fill="#5B3B2D"/>
<path d="M66.392 62.664L65.796 63.2381C64.347 63.9254 62.9739 64.7621 61.6991 65.7344V65.6304C61.5199 65.6304 43.4653 67.2196 29.4825 63.3671C22.5099 61.4492 17.8379 57.4593 16.9793 52.6957C16.669 51.0624 16.9047 49.3726 17.6503 47.8862C17.8102 49.1868 18.1481 50.4593 18.6548 51.668C19.4883 53.8897 20.4177 56.1654 22.1015 57.8546C24.0061 59.7684 26.686 60.692 29.2825 61.4117C37.6043 63.7121 46.26 64.5691 54.8724 63.9454C51.7221 63.3623 48.7779 61.9716 46.3285 59.9098L46.8286 59.8391C50.5796 61.8402 55.0599 63.4045 59.9278 63.4045C62.022 63.4002 64.1052 63.1033 66.1169 62.5225L66.392 62.664Z" fill="#4B2119"/>
<path d="M82.0793 51.3852L82.2127 51.4518C81.7959 51.7472 81.5125 51.9594 81.4 52.0467L80.6498 52.3005C82.6983 48.311 83.8786 43.9343 84.1132 39.4573L84.2007 39.4948C85.0188 37.5084 86.0191 35.6017 87.189 33.7992C87.5322 37.1206 87.3252 40.4758 86.5763 43.7301C86.1012 44.4706 85.6594 45.1904 85.251 45.8602C83.2671 49.122 82.0793 51.3852 82.0793 51.3852Z" fill="#79B730"/>
<path d="M98.1751 77.7289C97.2416 77.4418 96.5081 77.2588 96.1913 77.1714C96.1538 77.0466 96.1246 76.9218 96.0954 76.8011L96.3455 76.6971C96.6289 76.5889 97.029 76.4808 97.4458 76.3684C97.8626 76.2561 98.2793 76.202 98.6169 76.1022C98.8027 76.0565 98.9851 75.9981 99.1629 75.9274C98.9876 75.848 98.8027 75.7921 98.6128 75.761C98.1943 75.6781 97.7656 75.6599 97.3416 75.7069C96.9148 75.7369 96.4941 75.8251 96.0913 75.969L95.9079 76.0481C95.5764 74.8688 95.1499 73.7181 94.6326 72.6074C96.1709 72.9907 97.6728 73.5072 99.1212 74.1509C99.8881 75.6362 100.538 77.2088 101.205 78.7773C100.084 78.3654 99.042 78.0076 98.1751 77.7289Z" fill="#79B730"/>
<path d="M96.8831 67.486C93.8046 66.9412 90.802 66.032 87.9392 64.7776C86.7169 63.9683 85.3753 63.3548 83.9631 62.9595C85.1955 63.0865 86.4335 63.1517 87.6724 63.155C89.4299 63.1582 91.1847 63.019 92.9196 62.739C92.9571 62.7972 93.0155 62.8846 93.0863 62.9761C93.2819 63.2278 93.4995 63.4618 93.7365 63.6751C93.9865 63.9164 94.2533 64.1494 94.4575 64.3158C94.6617 64.4822 94.8076 64.5862 94.8076 64.5862C94.8076 64.5862 94.7492 64.4198 94.6492 64.1702C94.5492 63.9205 94.3866 63.6127 94.2324 63.3131C94.1228 63.1011 93.9988 62.8968 93.8615 62.7015C94.5533 62.7889 95.9995 62.9553 97.8917 63.0718C99.0295 63.1675 100.342 63.2091 101.743 63.2382C101.809 63.2923 101.88 63.3506 101.968 63.4088C102.382 63.6919 102.822 63.9369 103.281 64.141C103.456 64.2284 103.639 64.3116 103.814 64.3907C101.621 65.6655 99.2971 66.7031 96.8831 67.486Z" fill="#79B730"/>
<path d="M104.193 85.0013C104.293 85.1677 104.398 85.3341 104.514 85.4964C102.001 84.603 99.5853 83.4571 97.3041 82.0765C97.0415 80.8533 96.7372 79.4971 96.3997 78.0076C96.7706 78.1158 97.3041 78.2905 97.9376 78.5027C98.246 78.6026 98.571 78.7149 98.9211 78.8356C98.9753 78.9104 99.117 79.106 99.3379 79.3764C99.6088 79.7092 99.9881 80.1461 100.384 80.5621C100.58 80.7743 100.801 80.9782 100.98 81.1571C101.159 81.336 101.372 81.5149 101.534 81.6605C101.868 81.9434 102.109 82.1098 102.109 82.1098C102.109 82.1098 101.993 81.8435 101.78 81.4566C101.664 81.2735 101.547 81.0406 101.397 80.8242C101.247 80.6079 101.097 80.3499 100.93 80.117C100.763 79.884 100.513 79.5636 100.33 79.3223L101.643 79.7966C102.367 81.5904 103.219 83.3298 104.193 85.0013Z" fill="#79B730"/>
<path d="M103.064 63.2382C103.897 63.2382 104.731 63.2382 105.594 63.2382C105.144 63.546 104.689 63.8373 104.222 64.1118C104.01 63.9579 103.806 63.7832 103.56 63.6168L103.064 63.2382Z" fill="#79B730"/>
<path d="M113.362 56.232C111.487 58.4888 109.343 60.5091 106.977 62.248C106.323 62.248 105.665 62.248 105.023 62.2896H102.451L100.876 62.2605L100.913 62.2313C101.118 62.0774 101.33 61.9235 101.547 61.7446C101.964 61.3993 102.38 61.0373 102.685 60.7627C102.989 60.4881 103.101 60.3175 103.16 60.2718C103.106 60.2718 102.868 60.3758 102.522 60.5297C102.176 60.6837 101.655 60.9458 101.176 61.1912C100.934 61.3077 100.701 61.4533 100.484 61.5823C100.281 61.6955 100.083 61.8191 99.8922 61.9526C99.738 62.0566 99.6172 62.1523 99.5296 62.223C98.9586 62.223 98.4043 62.1814 97.8959 62.1564C97.1082 62.1273 96.4163 62.094 95.812 62.0483C99.5174 61.028 102.962 59.2294 105.915 56.7729L105.965 56.8686C106.002 56.8769 108.007 56.0115 113.362 56.232Z" fill="#79B730"/>
<path d="M117.359 11.1998C114.938 14.9234 109.653 23.1319 106.781 28.1826C102.851 35.0847 96.6122 43.78 92.978 46.3802L93.0196 46.4426C89.5808 47.385 86.3001 48.8289 83.2838 50.7279C83.8298 49.7751 84.7384 48.2108 85.9512 46.2929C86.2346 45.8394 86.5346 45.3651 86.8556 44.8783C87.5871 44.6093 88.3024 44.2981 88.9978 43.9464C90.3005 43.8523 91.5654 43.467 92.6987 42.8189L90.2439 43.2682C93.0951 41.531 95.6222 39.3124 97.7125 36.7114C103.07 30.3299 107.114 22.9554 109.611 15.0108C109.974 14.8735 110.332 14.7362 110.682 14.5947C112.971 13.7294 115.029 12.9222 117.359 11.1998Z" fill="#79B730"/>
<path d="M116.513 51.639C116.495 51.6462 116.478 51.656 116.463 51.6681C116.496 51.6307 116.513 51.6307 116.513 51.639Z" fill="#00AB00"/>
</svg>
